<?xml version="1.0" encoding="UTF-8"?>
		<svg xmlns="http://www.w3.org/2000/svg"  preserveAspectRatio="none" width="40" height="20">
			<style>
				* {
					vector-effect: non-scaling-stroke;
				}

				.sparkline {
					stroke-width: 2;
					fill: transparent;
					stroke: black;
				}

				.anomaly {
					stroke-dasharray: 4, 2;
					stroke-dashoffset: 1;
				}

			

			</style>

			<path class="sparkline-fill" style="fill:#efc9c9;" d="M -2.857142857142857 5.329110691425857L 0 5.1513656313716165L 2.857142857142857 4.391475730816278L 5.714285714285714 3.608176094537008L 8.571428571428571 3.2473392096086755L 11.428571428571429 2.9552750871755116L 14.285714285714286 2.4003244866330924L 17.142857142857142 2.326230789099835L 20 2.4148940978948765L 22.857142857142858 2.5367945240862717L 25.714285714285715 2.4121077101898507L 28.571428571428573 2L 31.42857142857143 2.086354449179904L 34.285714285714285 2.112135154332943L 37.142857142857146 2.1093687847087708L 37.142857142857146 20 L -5.714285714285714 20"></path>
					<path class="sparkline" style="stroke:#cf1111;" d="M -2.857142857142857 5.329110691425857L 0 5.1513656313716165L 2.857142857142857 4.391475730816278L 5.714285714285714 3.608176094537008L 8.571428571428571 3.2473392096086755L 11.428571428571429 2.9552750871755116L 14.285714285714286 2.4003244866330924L 17.142857142857142 2.326230789099835L 20 2.4148940978948765L 22.857142857142858 2.5367945240862717L 25.714285714285715 2.4121077101898507L 28.571428571428573 2L 31.42857142857143 2.086354449179904L 34.285714285714285 2.112135154332943L 37.142857142857146 2.1093687847087708"></path>
				
				
		</svg>